<svg xmlns="http://www.w3.org/2000/svg" width="120" height="120" viewBox="0 0 120 120">
  <defs>
    <linearGradient id="emptyGradient" x1="0%" y1="0%" x2="100%" y2="100%">
      <stop offset="0%" style="stop-color:#F8F9FA;stop-opacity:1" />
      <stop offset="100%" style="stop-color:#E8EAED;stop-opacity:1" />
    </linearGradient>
  </defs>
  
  <!-- Background circle -->
  <circle cx="60" cy="60" r="55" fill="url(#emptyGradient)" stroke="#DADCE0" stroke-width="2"/>
  
  <!-- Folder icon -->
  <g transform="translate(30, 25)">
    <!-- Folder base -->
    <path d="M8 12h40c4.4 0 8 3.6 8 8v32c0 4.4-3.6 8-8 8H8c-4.4 0-8-3.6-8-8V20c0-4.4 3.6-8 8-8z" fill="#9AA0A6" opacity="0.6"/>
    
    <!-- Folder tab -->
    <path d="M8 12h20c2.2 0 4 1.8 4 4v4H8v-8z" fill="#9AA0A6" opacity="0.8"/>
  </g>
  
  <!-- Plus icon -->
  <g transform="translate(60, 60)">
    <circle cx="0" cy="0" r="12" fill="#9AA0A6" opacity="0.4"/>
    <path d="M-6 0h12M0 -6v12" stroke="#9AA0A6" stroke-width="2" stroke-linecap="round" opacity="0.6"/>
  </g>
</svg>

