<?xml version="1.0" encoding="UTF-8" standalone="no"?>
<!-- Session Shepherd Toolbar Icon - Optimized for 128x128 toolbar display -->

<svg
   xmlns="http://www.w3.org/2000/svg"
   width="128"
   height="128"
   viewBox="0 0 128 128">
  <defs>
    <!-- Define our brand colors -->
    <style>
      .shepherd-crook {
        fill: #1a73e8; /* Light mode accent color */
        stroke: #1557b0; /* Darker shade for definition */
        stroke-width: 1;
      }
      
      .shepherd-background {
        fill: #f8f9fa; /* Light background */
        stroke: #e8eaed; /* Subtle border */
        stroke-width: 0.5;
      }
      
      /* Dark mode support */
      @media (prefers-color-scheme: dark) {
        .shepherd-crook {
          fill: #8ab4f8; /* Dark mode accent color */
          stroke: #669df6; /* Darker shade for definition */
        }
        
        .shepherd-background {
          fill: #2d2d2d; /* Dark background */
          stroke: #404040; /* Dark border */
        }
      }
    </style>
  </defs>
  
  <!-- Background circle for visibility -->
  <circle cx="64" cy="64" r="60" class="shepherd-background"/>
  
  <!-- Main shepherd crook path - scaled and centered for 128x128 -->
  <g transform="translate(64, 64) scale(0.25, 0.25)">
    <path
       class="shepherd-crook"
       d="m 229.64019,539.93861 c -3.86455,-1.04044 -8.96455,-2.87377 -11.33333,-4.07408 -4.80167,-2.43311 -77.01794,-43.16894 -104.97353,-59.21358 -9.9,-5.68194 -22.799999,-13.00983 -28.666665,-16.2842 -5.866667,-3.27437 -17.112884,-9.6451 -24.991593,-14.15718 -7.87871,-4.51207 -14.622573,-8.20377 -14.986362,-8.20377 -2.290513,0 -20.199895,-12.9468 -25.651545,-18.54365 -7.395555,-7.59254 -14.2496537,-20.21669 -16.3548487,-30.12302 -0.9546195,-4.49211 -1.296957,-44.28646 -1.0495254,-122 L 2,152.00579 7.4706144,140.67245 c 6.4895026,-13.44413 13.6092546,-21.81271 23.3799366,-27.48084 8.360324,-4.84995 70.730989,-39.903315 80.482779,-45.232671 3.66667,-2.003834 7.26667,-4.07664 8,-4.606235 0.73333,-0.529594 4.63333,-2.768009 8.66667,-4.974255 4.03333,-2.206246 13.93333,-7.783563 22,-12.394038 8.06666,-4.610475 16.65233,-9.501552 19.07926,-10.869061 2.42693,-1.367509 8.72693,-4.982265 14,-8.032792 C 204.78124,14.527736 223.61209,4.5732429 228,3.3362411 c 2.56666,-0.7235726 10.53165,-1.3189326 17.69997,-1.3230224 14.80448,-0.00845 23.03197,2.2731968 35.95379,9.9706853 4.32888,2.5787 8.4796,4.688546 9.22382,4.688546 0.74423,0 3.85123,1.738008 6.90444,3.86224 8.15314,5.672428 28.72783,17.471094 30.46636,17.471094 0.82495,0 3.49089,1.518596 5.92431,3.374658 4.6486,3.54566 16.58846,10.402096 27.8273,15.979758 3.66667,1.81971 7.80939,4.059393 9.20606,4.977074 10.61441,6.974217 16.24851,10.335178 17.32522,10.335178 0.69231,0 2.20599,0.851092 3.36373,1.891314 1.15775,1.040223 6.98216,4.490223 12.94315,7.666667 5.96098,3.176444 14.36098,7.848403 18.66666,10.38213 16.32235,9.605067 18.71197,10.933197 26.73212,14.857407 4.53031,2.21665 8.95378,4.89403 9.82992,5.94972 0.87615,1.05569 2.36016,1.91943 3.29781,1.91943 2.47763,0 14.9384,14.8327 18.72107,22.28466 7.67499,15.11992 7.33563,8.48135 6.9427,135.8117 l -0.36177,117.23698 -3.09232,7.65737 c -4.05266,10.03542 -13.41887,22.35596 -21.51105,28.29617 -3.56398,2.6162 -12.68621,8.24233 -20.27163,12.50251 -7.58542,4.26018 -36.29167,20.65363 -63.79167,36.4299 -27.5,15.77626 -53.6,30.66534 -58,33.08683 -4.4,2.4215 -14.40267,8.18571 -22.22815,12.80935 -7.82548,4.62365 -17.86932,10.24469 -22.31964,12.49121 -15.20693,7.67643 -33.18737,9.93012 -47.81201,5.99281 z m 29.42221,-2.58493 c 8.89488,-2.31682 18.3574,-6.93475 38.04277,-18.56575 7.82549,-4.62365 17.82816,-10.38786 22.22816,-12.80935 4.4,-2.4215 30.5,-17.31058 58,-33.08684 27.49999,-15.77627 56.20625,-32.16972 63.79166,-36.4299 7.58542,-4.26018 16.65808,-9.84992 20.16146,-12.42164 7.55361,-5.54485 16.20627,-16.37487 20.08084,-25.13397 6.41095,-14.49302 6.55477,-17.33299 6.59907,-130.31169 0.0456,-116.24807 0.37925,-110.89481 -8.01486,-128.58875 -3.991,-8.41262 -10.82398,-16.5125 -18.58865,-22.03515 -2.55043,-1.814 -13.95043,-8.51532 -25.33333,-14.89182 -11.38291,-6.376505 -21.42087,-12.226505 -22.30659,-13.000005 -0.88571,-0.773499 -2.02567,-1.406362 -2.53325,-1.406362 -0.50757,0 -5.18289,-2.483885 -10.3896,-5.519745 -5.20672,-3.03586 -13.36675,-7.637304 -18.13342,-10.225432 -4.76667,-2.588127 -8.96667,-5.066455 -9.33333,-5.507394 -0.36667,-0.44094 -2.16667,-1.552018 -4,-2.469063 -1.83334,-0.917046 -6.18561,-3.304833 -9.67173,-5.306195 -3.48611,-2.001361 -10.07661,-5.674753 -14.64555,-8.163093 -4.56895,-2.488339 -9.81667,-5.553391 -11.66161,-6.811225 -1.84495,-1.257834 -10.25445,-6.050969 -18.68778,-10.65141 -8.43333,-4.600441 -16.23333,-9.123971 -17.33333,-10.05229 -1.1,-0.928318 -9.2,-5.341757 -18,-9.807642 C 267.15478,7.9785089 261.05578,5.6970519 253.79748,4.6067504 236.16831,1.9585935 226.34805,5.1831078 193.72983,24.330159 176.58157,34.396266 141.00966,54.682363 129.33333,61.054466 125.3,63.255569 121.4,65.489777 120.66666,66.019371 c -0.73333,0.529595 -4.33333,2.613296 -8,4.630447 C 109,72.666969 93.099998,81.656357 77.333332,90.626236 61.566665,99.596115 44.466666,109.24825 39.333333,112.07542 c -13.216554,7.279 -23.675227,18.14461 -29.7363255,30.89336 l -4.9303409,10.37034 v 118.00001 118 l 5.130683,10.18748 c 7.3201544,14.5349 18.5352404,25.82668 33.0981834,33.32454 4.640789,2.38935 8.740464,4.67661 9.110388,5.0828 0.369923,0.40618 4.569923,2.77043 9.333333,5.25389 4.763409,2.48346 11.960744,6.45669 15.994078,8.82941 4.033333,2.37273 18.433333,10.60659 31.999998,18.29747 121.73156,69.0091 121.55504,68.91914 135.38653,68.98999 3.69593,0.0189 10.15007,-0.85903 14.34254,-1.95103 z M 232.40768,413.45661 228.66666,410.24076 228,354.45661 c -0.77122,-64.53219 0.3064,-59.05438 -15.82663,-80.45082 -22.58013,-29.9469 -30.23221,-54.93795 -24.9298,-81.41864 4.59399,-22.94275 16.9353,-40.67884 36.26859,-52.12272 15.83152,-9.37108 27.28225,-12.49189 45.1545,-12.30651 12.05146,0.125 16.41051,0.76202 24.44657,3.57254 26.32975,9.20855 43.79334,26.97436 53.2257,54.14683 3.16643,9.12177 3.52311,12.09444 3.58848,29.90735 0.0705,19.21795 -0.0167,19.85129 -3.07513,22.33333 -4.33253,3.51602 -11.04362,3.3086 -14.41468,-0.44551 -1.71765,-1.91283 -3.51735,-7.34868 -4.9662,-15 -4.55209,-24.03943 -17.71442,-43.73885 -34.80474,-52.09056 -7.3707,-3.60192 -9.15371,-3.90944 -22.66667,-3.90944 -13.31674,0 -15.35691,0.33897 -22.16605,3.68288 -15.55075,7.63686 -26.65855,24.47551 -27.59621,41.83396 -0.93782,17.36162 5.72352,33.17658 21.33617,50.65503 16.28987,18.23658 15.03309,11.45194 15.47616,83.5473 l 0.38339,62.38584 -3.9475,3.9475 c -5.30456,5.30456 -15.35283,5.65334 -21.07827,0.73164 z m 15.56404,-1.43619 c 2.11161,-1.09196 4.16811,-3.04196 4.56999,-4.33333 0.40188,-1.29138 0.85825,-28.14796 1.01416,-59.68129 0.33821,-68.40838 0.90473,-65.17846 -14.40212,-82.11089 -10.61187,-11.73887 -17.3964,-23.4336 -21.21498,-36.56907 -3.23111,-11.11462 -2.08304,-26.2729 2.73587,-36.1224 5.36296,-10.96149 16.30178,-22.05551 26.28265,-26.65555 7.62538,-3.51442 9.69045,-3.86106 23.0427,-3.86791 13.76864,-0.007 15.22305,0.256 23.7534,4.29634 12.82796,6.07587 22.02545,15.89411 29.43443,31.42095 5.9507,12.47075 8.81217,21.74761 8.81217,28.56894 0,5.56085 3.42894,9.70625 8.0287,9.70625 5.60624,0 6.76001,-3.33598 6.84937,-19.804 0.21329,-39.30748 -21.94762,-71.86022 -56.2114,-82.57041 -11.58657,-3.62174 -36.70862,-3.1989 -48.32405,0.81336 -11.49517,3.97071 -26.76411,13.93453 -34.066,22.22991 -6.89675,7.83513 -14.14015,22.24211 -17.09308,33.9978 -6.15703,24.51136 3.17621,54.60928 25.51317,82.27511 13.98228,17.31799 13.20657,13.07738 13.97391,76.39157 0.36884,30.43333 1.18998,56.40145 1.82477,57.70692 1.22195,2.51304 6.99496,6.15007 9.90416,6.23969 0.95309,0.0294 3.46056,-0.84003 5.57218,-1.93199 z m 14.81167,-26.54065 c -1.01593,-1.22411 -1.41335,-6.80431 -1.16326,-16.33333 l 0.37986,-14.47398 61.18037,-0.3469 c 44.06334,-0.24985 61.68946,0.0756 63,1.16326 2.7745,2.30263 2.54636,26.93311 -0.27561,29.75507 -1.84241,1.84241 -9.30406,2.09524 -61.83674,2.09524 -49.46854,0 -60.00685,-0.31973 -61.28462,-1.85936 z m 120.94994,-3.74064 c 1.97754,-1.97754 2.14285,-18.8943 0.21975,-22.48766 -1.33248,-2.48975 -3.40897,-2.57901 -60,-2.57901 h -58.61975 v 13.33334 13.33333 h 58.4 c 43.64444,0 58.80426,-0.40426 60,-1.6 z M 116,374.98904 c -3.17753,-1.64183 -3.35099,-2.35009 -3.7111,-15.15265 -0.31423,-11.17139 -0.007,-13.73785 1.82533,-15.25873 1.75797,-1.45898 12.62967,-1.93206 53.80791,-2.34141 46.93991,-0.46663 51.807,-0.31083 53.84134,1.72351 1.80556,1.80555 2.23652,4.90069 2.23652,16.06258 0,7.60435 -0.57647,14.18235 -1.28104,14.6178 -0.70457,0.43545 -24.25457,1.07961 -52.33333,1.43148 -40.12071,0.50277 -51.76605,0.27096 -54.38563,-1.08258 z m 103.71494,-15.98324 0.38162,-13 h -51.11495 c -37.97829,0 -51.52615,0.4112 -52.71495,1.6 -2.14946,2.14946 -2.13674,21.32992 0.0156,23.48224 1.22111,1.22111 13.99886,1.53038 52.33333,1.26667 l 50.71776,-0.34891 z m 42.42771,-23.10905 c -1.5257,-3.97591 -0.88589,-27.94772 0.79068,-29.62429 2.35697,-2.35697 119.63013,-2.2933 122.7851,0.0667 1.79189,1.34036 2.26275,4.21495 2.40498,14.68247 0.11696,8.60736 -0.38089,13.68786 -1.46987,15 -1.41404,1.70382 -10.27027,1.9842 -62.67415,1.9842 -54.41904,0 -61.11506,-0.22838 -61.83674,-2.10905 z m 111.19068,-1.68995 11.33333,-0.86767 0.40121,-9.30545 c 0.22067,-5.11799 0.0592,-10.66799 -0.35873,-12.33333 l -0.75995,-3.02789 h -59.30793 -59.30793 v 12.44445 c 0,6.84444 0.4,12.84444 0.88889,13.33333 1.12535,1.12535 91.92774,0.91898 107.11111,-0.24344 z M 114.20665,332.90081 C 112.48029,330.9932 112,327.71385 112,317.83414 c 0,-8.04427 0.5808,-13.20914 1.6,-14.22835 1.19136,-1.19136 15.28682,-1.6 55.19068,-1.6 47.6377,0 53.68058,0.23428 54.4,2.10905 1.5257,3.97591 0.88588,27.94772 -0.79068,29.62429 -1.18995,1.18994 -14.9763,1.6 -53.79335,1.6 -48.87075,0 -52.33383,-0.15522 -54.4,-2.43832 z m 105.50829,-14.56168 -0.38161,-13 -50.22217,-0.34926 c -44.34381,-0.30838 -50.46927,-0.10215 -52.33333,1.7619 -2.60697,2.60697 -3.00471,20.49381 -0.51117,22.98736 1.1888,1.18879 14.73666,1.6 52.71495,1.6 h 51.11495 z m -104.306,-32.63001 c -1.47275,-2.10265 -2.07561,-6.16892 -2.07561,-14 0,-17.29589 -2.44832,-16.36999 43.28675,-16.36999 h 37.95342 l 7.44007,11.18112 c 4.09204,6.14962 8.613,12.24261 10.04658,13.53998 1.43358,1.29738 2.60651,3.76587 2.60651,5.48555 v 3.12668 H 166.0756 117.48454 Z m 66.22299,-1.03666 h 29.21326 l -4.59942,-5.66667 c -2.52969,-3.11666 -6.52701,-8.82591 -8.88295,-12.68721 l -4.28351,-7.02055 -37.53966,0.35388 -37.53965,0.35388 -0.38935,11.12923 c -0.54438,15.56086 -0.69482,15.44641 18.91776,14.39185 8.73964,-0.46992 29.03623,-0.85441 45.10352,-0.85441 z m -70.37709,-36.55919 c -2.26804,-1.65842 -2.58818,-3.56834 -2.58818,-15.44081 0,-11.87248 0.32014,-13.78239 2.58818,-15.44082 2.06926,-1.51308 9.16666,-1.89252 35.4,-1.89252 34.38192,0 35.98131,0.26331 36.04022,5.93334 0.0156,1.50333 1.66628,7.57255 3.66814,13.48714 2.00187,5.9146 3.44509,11.7646 3.20718,13 -0.39341,2.04279 -3.84179,2.24619 -38.07998,2.24619 -30.40956,0 -38.14497,-0.36384 -40.23556,-1.89252 z m 72.79726,-7.77414 c -1.35554,-3.11667 -3.16434,-9.11667 -4.01956,-13.33334 l -1.55494,-7.66667 h -31.6388 c -22.83018,0 -32.08426,0.44546 -33.2388,1.6 -1.69638,1.69638 -2.31055,22.57834 -0.71111,24.17778 0.48889,0.48889 17.25515,0.88889 37.25836,0.88889 h 36.36946 z m -75.75543,-32.40894 c -2.69915,-1.89056 -2.96334,-3.17542 -2.96334,-14.41183 0,-7.78394 0.61503,-13.16385 1.66667,-14.57901 1.49211,-2.0079 5.69762,-2.25103 40.15564,-2.32142 21.16894,-0.0433 38.83905,0.27144 39.26692,0.69931 0.42787,0.42787 -0.24217,4.60631 -1.48898,9.28543 -1.2468,4.67911 -2.26692,10.31994 -2.26692,12.53517 0,2.21523 -0.58515,5.56674 -1.30033,7.44782 l -1.30033,3.42013 h -34.40299 c -28.97944,0 -34.87016,-0.32721 -37.36634,-2.0756 z m 70.40259,-6.9244 c 0.0294,-4.51099 1.56655,-13.14964 3.44013,-19.33333 0.66116,-2.18212 -1.62892,-2.33334 -35.33596,-2.33334 -41.46096,0 -38.80343,-0.91316 -38.80343,13.33334 0,14.19264 -2.36614,13.33333 36.71358,13.33333 h 33.95308 z m -44.60402,-31.76191 c -2.64244,-2.64243 -3.05082,-27.08252 -0.49524,-29.63809 1.16914,-1.16915 11.77226,-1.6 39.37518,-1.6 31.57395,0 37.89561,0.31385 38.50882,1.91186 0.42749,1.114 -2.24213,5.42633 -6.39701,10.33333 -3.92186,4.63181 -8.79613,11.27148 -10.8317,14.75481 l -3.70104,6.33333 h -27.18189 c -22.93303,0 -27.5094,-0.32751 -29.27712,-2.09524 z m 56.92232,-6.47235 c 1.19798,-2.51218 5.52443,-8.51218 9.61435,-13.33334 l 7.4362,-8.76574 h -35.10072 c -25.52279,0 -35.53732,0.4366 -36.70073,1.6 -1.6647,1.66471 -2.26566,19.11387 -0.79068,22.95762 0.70011,1.82446 4.35513,2.10905 27.08639,2.10905 h 26.27706 z"/>
  </g>
</svg>